<svg width="16" height="16" viewBox="0 0 16 16" fill="none" xmlns="http://www.w3.org/2000/svg">
<path d="M2 3.53646C2 2.66667 2.66667 2 3.46615 2H12.4479C13.3776 2 14 2.66667 14 3.50781V12.513C14 13.3333 13.3333 14 12.487 14H3.50521C2.66667 14 2 13.3333 2 12.5391V3.53646Z" fill="url(#paint0_linear_1928_404)"/>
<path d="M3 6.5C3 6.22386 3.22386 6 3.5 6H12.5C12.7761 6 13 6.22386 13 6.5C13 6.77614 12.7761 7 12.5 7H3.5C3.22386 7 3 6.77614 3 6.5Z" fill="#485F84"/>
<path d="M3 8.5C3 8.22386 3.22386 8 3.5 8H5.5C5.77614 8 6 8.22386 6 8.5C6 8.77614 5.77614 9 5.5 9H3.5C3.22386 9 3 8.77614 3 8.5Z" fill="#485F84"/>
<path d="M3 10.5C3 10.2239 3.22386 10 3.5 10H4.5C4.77614 10 5 10.2239 5 10.5C5 10.7761 4.77614 11 4.5 11H3.5C3.22386 11 3 10.7761 3 10.5Z" fill="#485F84"/>
<path d="M3 3.5C3 3.22386 3.22386 3 3.5 3H12.5C12.7761 3 13 3.22386 13 3.5V4.5C13 4.77614 12.7761 5 12.5 5H3.5C3.22386 5 3 4.77614 3 4.5V3.5Z" fill="#485F84"/>
<path d="M5.00347 12.8926L6.70688 13.651L5.31967 14.9043C5.31967 14.9043 5.20324 15.0226 5.09677 14.9752C4.99031 14.9278 5.00028 14.7621 5.00028 14.7621L5.00347 12.8926Z" fill="#48B9C7"/>
<path d="M10.1501 1.33434C10.1501 1.33434 10.411 0.748427 11.2632 1.12787C12.1154 1.5073 11.8546 2.09321 11.8546 2.09321L6.70842 13.6516L5.32035 14.9058C5.32035 14.9058 5.20385 15.0241 5.09732 14.9767C4.99079 14.9292 5.00077 14.7635 5.00077 14.7635L5.00397 12.8927L10.1501 1.33434Z" fill="#69D6E4"/>
<path d="M8.76653 7.73894C10.2961 4.30338 11.2632 1.12793 11.2632 1.12793C12.1154 1.50737 11.8546 2.09328 11.8546 2.09328L6.70842 13.6517L5.32035 14.9058C5.32035 14.9058 5.20385 15.0241 5.09732 14.9767C4.99079 14.9293 5.00077 14.7635 5.00077 14.7635C5.00077 14.7635 6.19346 13.5181 8.76653 7.73894Z" fill="url(#paint1_linear_1928_404)"/>
<path d="M10.552 1.57664C10.6568 1.34131 10.9325 1.23547 11.1678 1.34025C11.4032 1.44503 11.509 1.72074 11.4042 1.95608L6.66126 12.609C6.55648 12.8443 6.28076 12.9502 6.04542 12.8454C5.81009 12.7406 5.70425 12.4649 5.80903 12.2295L10.552 1.57664Z" fill="#48B9C7"/>
<path d="M10.7475 1.8557C10.7867 1.76751 10.8901 1.72784 10.9783 1.76711C11.0664 1.80638 11.1061 1.90971 11.0668 1.9979L10.6402 2.95607C10.601 3.04427 10.4976 3.08393 10.4094 3.04467C10.3212 3.0054 10.2816 2.90207 10.3209 2.81387L10.7475 1.8557Z" fill="white"/>
<defs>
<linearGradient id="paint0_linear_1928_404" x1="2" y1="14" x2="14" y2="2" gradientUnits="userSpaceOnUse">
<stop stop-color="#9E9E9E"/>
<stop offset="1" stop-color="#BEBEBE"/>
</linearGradient>
<linearGradient id="paint1_linear_1928_404" x1="11.6094" y1="1.2821" x2="5.44355" y2="15.1309" gradientUnits="userSpaceOnUse">
<stop offset="0.619792" stop-color="#229FAD"/>
<stop offset="1" stop-color="#48B9C7"/>
</linearGradient>
</defs>
</svg>
