<svg width="256" height="256" viewBox="0 0 256 256" fill="none" xmlns="http://www.w3.org/2000/svg">
<path d="M24 40C24 31.1634 31.1634 24 40 24H216C224.837 24 232 31.1634 232 40V216C232 224.837 224.837 232 216 232H40C31.1634 232 24 224.837 24 216V40Z" fill="url(#paint0_linear_1928_410)"/>
<path d="M40 116C40 113.791 41.7909 112 44 112H212C214.209 112 216 113.791 216 116C216 118.209 214.209 120 212 120H44C41.7909 120 40 118.209 40 116Z" fill="#485F84"/>
<path d="M40 48C40 43.5817 43.5817 40 48 40H208C212.418 40 216 43.5817 216 48V72C216 76.4183 212.418 80 208 80H48C43.5817 80 40 76.4183 40 72V48Z" fill="#485F84"/>
<path d="M40 94C40 90.6863 42.6863 88 46 88H210C213.314 88 216 90.6863 216 94V98C216 101.314 213.314 104 210 104H46C42.6863 104 40 101.314 40 98V94Z" fill="#485F84"/>
<path d="M40 132C40 129.791 41.7909 128 44 128H100C102.209 128 104 129.791 104 132C104 134.209 102.209 136 100 136H44C41.7909 136 40 134.209 40 132Z" fill="#485F84"/>
<path d="M40 148C40 145.791 41.7909 144 44 144H84C86.2091 144 88 145.791 88 148C88 150.209 86.2091 152 84 152H44C41.7909 152 40 150.209 40 148Z" fill="#485F84"/>
<path d="M74.0148 212.289L103.248 225.304L79.4412 246.814C79.4412 246.814 77.443 248.843 75.616 248.03C73.7889 247.216 73.9599 244.373 73.9599 244.373L74.0148 212.289Z" fill="#48B9C7"/>
<path d="M162.278 14.0497C162.278 14.0497 166.752 4.00068 181.368 10.5085C195.985 17.0162 191.511 27.0652 191.511 27.0652L103.249 225.305L79.4423 246.815C79.4423 246.815 77.4441 248.844 75.6171 248.03C73.79 247.217 73.961 244.374 73.961 244.374L74.0159 212.289L162.278 14.0497Z" fill="#69D6E4"/>
<path d="M138.548 123.894C164.782 64.9702 181.368 10.5078 181.368 10.5078C195.985 17.0156 191.511 27.0646 191.511 27.0646L103.249 225.304L79.4421 246.814C79.4421 246.814 77.4439 248.843 75.6168 248.03C73.7897 247.216 73.9608 244.374 73.9608 244.374C73.9608 244.374 94.4169 223.014 138.548 123.894Z" fill="url(#paint1_linear_1928_410)"/>
<path d="M169.179 18.2164C170.976 14.1801 175.704 12.3648 179.741 14.1619C183.777 15.959 185.592 20.6879 183.795 24.7241L102.448 207.433C100.651 211.47 95.9219 213.285 91.8856 211.488C87.8493 209.691 86.0341 204.962 87.8312 200.925L169.179 18.2164Z" fill="#48B9C7"/>
<path d="M172.526 22.991C173.2 21.4774 174.974 20.7967 176.487 21.4706C178.001 22.1445 178.682 23.9178 178.008 25.4314L170.686 41.8752C170.013 43.3888 168.239 44.0696 166.726 43.3957C165.212 42.7217 164.531 40.9484 165.205 39.4348L172.526 22.991Z" fill="white"/>
<defs>
<linearGradient id="paint0_linear_1928_410" x1="24" y1="232" x2="232" y2="24" gradientUnits="userSpaceOnUse">
<stop stop-color="#9E9E9E"/>
<stop offset="1" stop-color="#BEBEBE"/>
</linearGradient>
<linearGradient id="paint1_linear_1928_410" x1="187.307" y1="13.152" x2="81.555" y2="250.674" gradientUnits="userSpaceOnUse">
<stop offset="0.619792" stop-color="#229FAD"/>
<stop offset="1" stop-color="#48B9C7"/>
</linearGradient>
</defs>
</svg>
