<svg width="16" height="16" viewBox="0 0 16 16" fill="none" xmlns="http://www.w3.org/2000/svg">
<g clip-path="url(#clip0_412_3864)">
<path d="M0 0H16V16H0V0Z" fill="#808080" fill-opacity="0.01"/>
<path d="M0 2V12.01C0 12.843 0.573988 13.516 1.06299 13.76C1.55099 14.004 2 14.01 2 14.01H14C14 14.01 14.449 14.004 14.938 13.76C15.426 13.516 16 12.843 16 12.01V7.00999H2.96899L2.5 12.041C2.48715 12.1718 2.42524 12.2929 2.32672 12.3799C2.2282 12.4669 2.10039 12.5134 1.96899 12.51C1.83818 12.4971 1.71708 12.4352 1.63007 12.3367C1.54305 12.2382 1.49659 12.1104 1.5 11.979L2 6.47899C2.00752 6.36731 2.05122 6.26112 2.12448 6.1765C2.19774 6.09187 2.29656 6.03343 2.40601 6.00999C2.43727 6.00698 2.46874 6.00698 2.5 6.00999H14V4C14 3 13.035 3.00999 13.035 3.00999H8.5L6 1H1C1 1 0 1 0 2Z" fill="#232323"/>
</g>
<defs>
<clipPath id="clip0_412_3864">
<rect width="16" height="16" fill="white"/>
</clipPath>
</defs>
</svg>
