<svg width="16" height="16" viewBox="0 0 16 16" fill="none" xmlns="http://www.w3.org/2000/svg">
<path d="M7.70892 2.29365C7.52159 2.10591 7.26735 2.00028 7.00213 2C6.17371 1.99912 5.5 2 5 2C4 2 3.00004 3.00107 3 4C2.99998 4.5 2.99851 5.56725 2.99805 5.99894L0.998047 5.99681L3.99379 10L6.99804 6.0032L4.99804 6.00107C4.99835 5.71751 4.9987 5.52735 4.99804 5C4.99739 4.47265 5.47193 4 6.00049 4C6.50049 4 6.54487 3.99952 7 4C7.26522 4.00028 7.51968 3.8952 7.70742 3.70786C7.89515 3.52052 8.00078 3.26628 8.00106 3.00107C8.00135 2.73585 7.89626 2.48138 7.70892 2.29365Z" fill="#232323"/>
<rect x="9" y="1" width="6" height="4" rx="0.5" fill="#232323"/>
<rect x="4" y="11" width="6" height="4" rx="0.5" fill="#232323"/>
<path opacity="0.67" fill-rule="evenodd" clip-rule="evenodd" d="M6.5 9C6.22386 9 6 9.22386 6 9.5V10H10.5C10.7761 10 11 10.2239 11 10.5V13H11.5C11.7761 13 12 12.7761 12 12.5V9.5C12 9.22386 11.7761 9 11.5 9H6.5Z" fill="#232323"/>
<path opacity="0.33" fill-rule="evenodd" clip-rule="evenodd" d="M8.5 7C8.22386 7 8 7.22386 8 7.5V8H12.5C12.7761 8 13 8.22386 13 8.5V11H13.5C13.7761 11 14 10.7761 14 10.5V7.5C14 7.22386 13.7761 7 13.5 7H8.5Z" fill="#232323"/>
</svg>
