<svg width="32" height="32" viewBox="0 0 32 32" fill="none" xmlns="http://www.w3.org/2000/svg">
<path d="M4 7C4 5.5 5 4 7 4H25C27 4 28 5.5 28 7V25C28 26.5 27 28 25 28H7C5.5 28 4 27 4 25V7Z" fill="url(#paint0_linear_1928_406)"/>
<path d="M6 15.5C6 15.2239 6.20351 15 6.45455 15H25.5455C25.7965 15 26 15.2239 26 15.5C26 15.7761 25.7965 16 25.5455 16H6.45455C6.20351 16 6 15.7761 6 15.5Z" fill="#485F84"/>
<path d="M6 7C6 6.44772 6.40701 6 6.90909 6H25.0909C25.593 6 26 6.44772 26 7V10C26 10.5523 25.593 11 25.0909 11H6.90909C6.40701 11 6 10.5523 6 10V7Z" fill="#485F84"/>
<path d="M6 12.75C6 12.3358 6.30526 12 6.68182 12H25.3182C25.6947 12 26 12.3358 26 12.75V13.25C26 13.6642 25.6947 14 25.3182 14H6.68182C6.30526 14 6 13.6642 6 13.25V12.75Z" fill="#485F84"/>
<path d="M9.00677 25.8008L12.4184 27.3197L9.64006 29.83C9.64006 29.83 9.40686 30.0669 9.19363 29.9719C8.9804 29.877 9.00037 29.5452 9.00037 29.5452L9.00677 25.8008Z" fill="#48B9C7"/>
<path d="M19.3052 2.66908C19.3052 2.66908 19.8273 1.49655 21.5327 2.25588C23.2382 3.01522 22.7162 4.18774 22.7162 4.18774L12.4177 27.3184L9.63993 29.8282C9.63993 29.8282 9.40678 30.065 9.1936 29.9701C8.98041 29.8752 9.00037 29.5435 9.00037 29.5435L9.00677 25.7998L19.3052 2.66908Z" fill="#69D6E4"/>
<path d="M16.5364 15.4848C19.5975 8.6096 21.5327 2.25488 21.5327 2.25488C23.2382 3.01422 22.7162 4.18674 22.7162 4.18674L12.4177 27.3174L9.63993 29.8272C9.63993 29.8272 9.40678 30.064 9.1936 29.9691C8.98041 29.8742 9.00037 29.5425 9.00037 29.5425C9.00037 29.5425 11.3872 27.0502 16.5364 15.4848Z" fill="url(#paint1_linear_1928_406)"/>
<path d="M20.111 3.15557C20.3207 2.68462 20.8725 2.47281 21.3435 2.6825C21.8144 2.89218 22.0262 3.44395 21.8165 3.91491L12.3249 25.2335C12.1152 25.7045 11.5634 25.9163 11.0925 25.7066C10.6215 25.4969 10.4097 24.9451 10.6194 24.4742L20.111 3.15557Z" fill="#48B9C7"/>
<path d="M20.5009 3.71268C20.5795 3.53603 20.7865 3.45659 20.9631 3.53524C21.1398 3.61389 21.2192 3.82084 21.1405 3.99749L20.2861 5.91654C20.2075 6.09319 20.0005 6.17263 19.8239 6.09398C19.6472 6.01534 19.5678 5.80838 19.6464 5.63174L20.5009 3.71268Z" fill="white"/>
<path d="M6 17.5C6 17.2239 6.22386 17 6.5 17H11.5C11.7761 17 12 17.2239 12 17.5C12 17.7761 11.7761 18 11.5 18H6.5C6.22386 18 6 17.7761 6 17.5Z" fill="#485F84"/>
<path d="M6 19.5C6 19.2239 6.22386 19 6.5 19H9.5C9.77614 19 10 19.2239 10 19.5C10 19.7761 9.77614 20 9.5 20H6.5C6.22386 20 6 19.7761 6 19.5Z" fill="#485F84"/>
<defs>
<linearGradient id="paint0_linear_1928_406" x1="4" y1="28" x2="28" y2="4" gradientUnits="userSpaceOnUse">
<stop stop-color="#9E9E9E"/>
<stop offset="1" stop-color="#BEBEBE"/>
</linearGradient>
<linearGradient id="paint1_linear_1928_406" x1="22.2256" y1="2.56341" x2="9.88646" y2="30.2776" gradientUnits="userSpaceOnUse">
<stop offset="0.619792" stop-color="#229FAD"/>
<stop offset="1" stop-color="#48B9C7"/>
</linearGradient>
</defs>
</svg>
