<svg width="128" height="128" viewBox="0 0 128 128" fill="none" xmlns="http://www.w3.org/2000/svg">
<path d="M12 20C12 15.5817 15.5817 12 20 12H108C112.418 12 116 15.5817 116 20V108C116 112.418 112.418 116 108 116H20C15.5817 116 12 112.418 12 108V20Z" fill="url(#paint0_linear_1928_409)"/>
<path d="M20 58C20 56.8954 20.8954 56 22 56H106C107.105 56 108 56.8954 108 58C108 59.1046 107.105 60 106 60H22C20.8954 60 20 59.1046 20 58Z" fill="#485F84"/>
<path d="M20 24C20 21.7909 21.7909 20 24 20H104C106.209 20 108 21.7909 108 24V36C108 38.2091 106.209 40 104 40H24C21.7909 40 20 38.2091 20 36V24Z" fill="#485F84"/>
<path d="M20 47C20 45.3431 21.3431 44 23 44H105C106.657 44 108 45.3431 108 47V49C108 50.6569 106.657 52 105 52H23C21.3431 52 20 50.6569 20 49V47Z" fill="#485F84"/>
<path d="M20 66C20 64.8954 20.8954 64 22 64H50C51.1046 64 52 64.8954 52 66C52 67.1046 51.1046 68 50 68H22C20.8954 68 20 67.1046 20 66Z" fill="#485F84"/>
<path d="M20 74C20 72.8954 20.8954 72 22 72H42C43.1046 72 44 72.8954 44 74C44 75.1046 43.1046 76 42 76H22C20.8954 76 20 75.1046 20 74Z" fill="#485F84"/>
<path d="M37.0074 106.144L51.6241 112.652L39.7206 123.407C39.7206 123.407 38.7215 124.421 37.808 124.015C36.8944 123.608 36.98 122.186 36.98 122.186L37.0074 106.144Z" fill="#48B9C7"/>
<path d="M81.1388 7.02484C81.1388 7.02484 83.3759 2.00034 90.6842 5.25423C97.9926 8.50812 95.7556 13.5326 95.7556 13.5326L51.6246 112.652L39.7212 123.407C39.7212 123.407 38.7221 124.422 37.8085 124.015C36.895 123.609 36.9805 122.187 36.9805 122.187L37.008 106.145L81.1388 7.02484Z" fill="#69D6E4"/>
<path d="M69.2739 61.947C82.3912 32.4851 90.6841 5.25391 90.6841 5.25391C97.9925 8.5078 95.7554 13.5323 95.7554 13.5323L51.6245 112.652L39.7211 123.407C39.7211 123.407 38.722 124.422 37.8084 124.015C36.8949 123.608 36.9804 122.187 36.9804 122.187C36.9804 122.187 47.2085 111.507 69.2739 61.947Z" fill="url(#paint1_linear_1928_409)"/>
<path d="M84.5893 9.10842C85.4878 7.09027 87.8522 6.18265 89.8704 7.08119C91.8885 7.97973 92.7962 10.3442 91.8976 12.3623L51.224 103.717C50.3254 105.735 47.961 106.643 45.9428 105.744C43.9247 104.846 43.0171 102.481 43.9156 100.463L84.5893 9.10842Z" fill="#48B9C7"/>
<path d="M86.2632 11.4952C86.6002 10.7384 87.4869 10.3981 88.2437 10.735C89.0005 11.072 89.3408 11.9587 89.0039 12.7155L85.3432 20.9374C85.0063 21.6942 84.1196 22.0345 83.3628 21.6976C82.606 21.3606 82.2657 20.474 82.6026 19.7172L86.2632 11.4952Z" fill="white"/>
<defs>
<linearGradient id="paint0_linear_1928_409" x1="12" y1="116" x2="116" y2="12" gradientUnits="userSpaceOnUse">
<stop stop-color="#9E9E9E"/>
<stop offset="1" stop-color="#BEBEBE"/>
</linearGradient>
<linearGradient id="paint1_linear_1928_409" x1="93.6533" y1="6.57602" x2="40.7775" y2="125.337" gradientUnits="userSpaceOnUse">
<stop offset="0.619792" stop-color="#229FAD"/>
<stop offset="1" stop-color="#48B9C7"/>
</linearGradient>
</defs>
</svg>
