<svg width="48" height="48" viewBox="0 0 48 48" fill="none" xmlns="http://www.w3.org/2000/svg">
<path d="M5 8.5C5 6.5 6.5 5 8.5 5H39.5C41.5 5 43 6.5 43 8.5V39.5C43 41.5 41.5 43 39.5 43H8.5C6.5 43 5 41.5 5 39.5V8.5Z" fill="url(#paint0_linear_1928_407)"/>
<path d="M8 9.4C8 8.6268 8.65122 8 9.45455 8H38.5455C39.3488 8 40 8.6268 40 9.4V13.6C40 14.3732 39.3488 15 38.5455 15H9.45455C8.65122 15 8 14.3732 8 13.6V9.4Z" fill="#485F84"/>
<path d="M8 18.125C8 17.5037 8.48842 17 9.09091 17H38.9091C39.5116 17 40 17.5037 40 18.125V18.875C40 19.4963 39.5116 20 38.9091 20H9.09091C8.48842 20 8 19.4963 8 18.875V18.125Z" fill="#485F84"/>
<path d="M8 23C8 22.4477 8.44772 22 9 22H39C39.5523 22 40 22.4477 40 23C40 23.5523 39.5523 24 39 24H9C8.44772 24 8 23.5523 8 23Z" fill="#485F84"/>
<path d="M8 27C8 26.4477 8.44772 26 9 26H16C16.5523 26 17 26.4477 17 27C17 27.5523 16.5523 28 16 28H9C8.44772 28 8 27.5523 8 27Z" fill="#485F84"/>
<path d="M8 31C8 30.4477 8.44772 30 9 30H13C13.5523 30 14 30.4477 14 31C14 31.5523 13.5523 32 13 32H9C8.44772 32 8 31.5523 8 31Z" fill="#485F84"/>
<path d="M13.0108 39.415L18.373 41.8024L14.0061 45.7479C14.0061 45.7479 13.6396 46.1201 13.3045 45.9709C12.9693 45.8217 13.0007 45.3003 13.0007 45.3003L13.0108 39.415Z" fill="#48B9C7"/>
<path d="M29.2003 3.05181C29.2003 3.05181 30.021 1.20856 32.7021 2.40226C35.3832 3.59596 34.5625 5.43921 34.5625 5.43921L18.3729 41.8016L14.0061 45.7471C14.0061 45.7471 13.6396 46.1193 13.3045 45.9701C12.9693 45.8209 13.0007 45.2994 13.0007 45.2994L13.0108 39.4142L29.2003 3.05181Z" fill="#69D6E4"/>
<path d="M24.8477 23.2004C29.6598 12.3922 32.7021 2.40234 32.7021 2.40234C35.3832 3.59604 34.5625 5.4393 34.5625 5.4393L18.3729 41.8016L14.0061 45.7471C14.0061 45.7471 13.6396 46.1194 13.3045 45.9702C12.9693 45.821 13.0007 45.2995 13.0007 45.2995C13.0007 45.2995 16.7529 41.3815 24.8477 23.2004Z" fill="url(#paint1_linear_1928_407)"/>
<path d="M30.4669 3.81722C30.7965 3.07685 31.6639 2.74389 32.4043 3.07352C33.1446 3.40315 33.4776 4.27055 33.148 5.01092L18.2267 38.5246C17.8971 39.265 17.0297 39.5979 16.2893 39.2683C15.5489 38.9387 15.216 38.0713 15.5456 37.3309L30.4669 3.81722Z" fill="#48B9C7"/>
<path d="M31.0805 4.69281C31.2041 4.41517 31.5294 4.29031 31.807 4.41392C32.0846 4.53753 32.2095 4.86281 32.0859 5.14045L30.743 8.15668C30.6194 8.43431 30.2941 8.55918 30.0165 8.43556C29.7388 8.31195 29.614 7.98668 29.7376 7.70904L31.0805 4.69281Z" fill="white"/>
<defs>
<linearGradient id="paint0_linear_1928_407" x1="5" y1="43" x2="43" y2="5" gradientUnits="userSpaceOnUse">
<stop stop-color="#9E9E9E"/>
<stop offset="1" stop-color="#BEBEBE"/>
</linearGradient>
<linearGradient id="paint1_linear_1928_407" x1="33.7913" y1="2.88737" x2="14.3937" y2="46.4552" gradientUnits="userSpaceOnUse">
<stop offset="0.619792" stop-color="#229FAD"/>
<stop offset="1" stop-color="#48B9C7"/>
</linearGradient>
</defs>
</svg>
