<svg width="24" height="24" viewBox="0 0 24 24" fill="none" xmlns="http://www.w3.org/2000/svg">
<path d="M3 5.30469C3 4 4 3 5.19922 3H18.6719C20.0664 3 21 4 21 5.26172V18.7695C21 20 20 21 18.7305 21H5.25781C4 21 3 20 3 18.8086V5.30469Z" fill="url(#paint0_linear_1928_405)"/>
<path d="M5 5.6C5 5.26863 5.28491 5 5.63636 5H18.3636C18.7151 5 19 5.26863 19 5.6V7.4C19 7.73137 18.7151 8 18.3636 8H5.63636C5.28491 8 5 7.73137 5 7.4V5.6Z" fill="#485F84"/>
<path d="M5 14.5C5 14.2239 5.22386 14 5.5 14H7.5C7.77614 14 8 14.2239 8 14.5C8 14.7761 7.77614 15 7.5 15H5.5C5.22386 15 5 14.7761 5 14.5Z" fill="#485F84"/>
<path d="M5 12.5C5 12.2239 5.22386 12 5.5 12H18.5C18.7761 12 19 12.2239 19 12.5C19 12.7761 18.7761 13 18.5 13H5.5C5.22386 13 5 12.7761 5 12.5Z" fill="#485F84"/>
<path d="M5 9.5C5 9.22386 5.22386 9 5.5 9H18.5C18.7761 9 19 9.22386 19 9.5V10.5C19 10.7761 18.7761 11 18.5 11H5.5C5.22386 11 5 10.7761 5 10.5V9.5Z" fill="#485F84"/>
<path d="M5 16.5C5 16.2239 5.22386 16 5.5 16H6.5C6.77614 16 7 16.2239 7 16.5C7 16.7761 6.77614 17 6.5 17H5.5C5.22386 17 5 16.7761 5 16.5Z" fill="#485F84"/>
<path d="M7.00497 19.0015L9.44141 20.0862L7.45723 21.8789C7.45723 21.8789 7.2907 22.0481 7.13842 21.9803C6.98614 21.9125 7.0004 21.6756 7.0004 21.6756L7.00497 19.0015Z" fill="#48B9C7"/>
<path d="M14.3616 2.4784C14.3616 2.4784 14.7344 1.64088 15.9527 2.18326C17.1709 2.72565 16.798 3.56318 16.798 3.56318L9.44189 20.0853L7.45772 21.878C7.45772 21.878 7.29118 22.0471 7.13891 21.9793C6.98663 21.9115 7.00089 21.6746 7.00089 21.6746L7.00546 19.0005L14.3616 2.4784Z" fill="#69D6E4"/>
<path d="M12.3838 11.6341C14.5703 6.72321 15.9527 2.18408 15.9527 2.18408C17.1709 2.72647 16.798 3.56399 16.798 3.56399L9.44189 20.0861L7.45772 21.8788C7.45772 21.8788 7.29118 22.0479 7.13891 21.9802C6.98663 21.9124 7.00089 21.6754 7.00089 21.6754C7.00089 21.6754 8.70578 19.8952 12.3838 11.6341Z" fill="url(#paint1_linear_1928_405)"/>
<path d="M14.9363 2.8259C15.0861 2.4895 15.4802 2.33821 15.8166 2.48799C16.153 2.63776 16.3043 3.03189 16.1545 3.36829L9.37471 18.596C9.22493 18.9324 8.83081 19.0837 8.4944 18.9339C8.158 18.7842 8.00671 18.39 8.15649 18.0536L14.9363 2.8259Z" fill="#48B9C7"/>
<path d="M15.2154 3.22408C15.2716 3.09793 15.4194 3.0412 15.5455 3.09736C15.6717 3.15353 15.7284 3.30132 15.6722 3.42748L15.0621 4.79797C15.0059 4.92412 14.8581 4.98086 14.7319 4.92469C14.6058 4.86852 14.5491 4.72073 14.6052 4.59458L15.2154 3.22408Z" fill="white"/>
<defs>
<linearGradient id="paint0_linear_1928_405" x1="3" y1="21" x2="21" y2="3" gradientUnits="userSpaceOnUse">
<stop stop-color="#9E9E9E"/>
<stop offset="1" stop-color="#BEBEBE"/>
</linearGradient>
<linearGradient id="paint1_linear_1928_405" x1="16.4476" y1="2.40446" x2="7.63382" y2="22.2005" gradientUnits="userSpaceOnUse">
<stop offset="0.619792" stop-color="#229FAD"/>
<stop offset="1" stop-color="#48B9C7"/>
</linearGradient>
</defs>
</svg>
