<svg width="64" height="64" viewBox="0 0 64 64" fill="none" xmlns="http://www.w3.org/2000/svg">
<path d="M6 10C6 7.79086 7.79086 6 10 6H54C56.2091 6 58 7.79086 58 10V54C58 56.2091 56.2091 58 54 58H10C7.5 58 6 56 6 54V10Z" fill="url(#paint0_linear_1928_408)"/>
<path d="M10 29C10 28.4477 10.4477 28 11 28H53C53.5523 28 54 28.4477 54 29C54 29.5523 53.5523 30 53 30H11C10.4477 30 10 29.5523 10 29Z" fill="#485F84"/>
<path d="M10 12C10 10.8954 10.8954 10 12 10H52C53.1046 10 54 10.8954 54 12V18C54 19.1046 53.1046 20 52 20H12C10.8954 20 10 19.1046 10 18V12Z" fill="#485F84"/>
<path d="M10 23.5C10 22.6716 10.6716 22 11.5 22H52.5C53.3284 22 54 22.6716 54 23.5V24.5C54 25.3284 53.3284 26 52.5 26H11.5C10.6716 26 10 25.3284 10 24.5V23.5Z" fill="#485F84"/>
<path d="M17.0148 52.9941L24.3231 56.248L18.3714 61.6255C18.3714 61.6255 17.8718 62.1328 17.415 61.9295C16.9583 61.7261 17.001 61.0154 17.001 61.0154L17.0148 52.9941Z" fill="#48B9C7"/>
<path d="M39.0802 3.43356C39.0802 3.43356 40.1987 0.921312 43.8529 2.54826C47.5071 4.1752 46.3886 6.68745 46.3886 6.68745L24.3231 56.2473L18.3714 61.6248C18.3714 61.6248 17.8718 62.1321 17.415 61.9288C16.9583 61.7254 17.001 61.0147 17.001 61.0147L17.0148 52.9935L39.0802 3.43356Z" fill="#69D6E4"/>
<path d="M33.1478 30.8954C39.7064 16.1644 43.8529 2.54883 43.8529 2.54883C47.5071 4.17577 46.3886 6.68802 46.3886 6.68802L24.3231 56.2479L18.3714 61.6254C18.3714 61.6254 17.8718 62.1327 17.415 61.9293C16.9583 61.726 17.001 61.0153 17.001 61.0153C17.001 61.0153 22.1151 55.6753 33.1478 30.8954Z" fill="url(#paint1_linear_1928_408)"/>
<path d="M40.8056 4.47609C41.2549 3.46701 42.4371 3.0132 43.4462 3.46247C44.4553 3.91174 44.9091 5.09396 44.4598 6.10303L24.123 51.7803C23.6737 52.7894 22.4915 53.2432 21.4824 52.7939C20.4733 52.3447 20.0195 51.1624 20.4688 50.1534L40.8056 4.47609Z" fill="#48B9C7"/>
<path d="M41.6424 5.66974C41.8109 5.29134 42.2542 5.12116 42.6326 5.28964C43.011 5.45811 43.1812 5.90145 43.0127 6.27985L41.1824 10.3908C41.0139 10.7692 40.5706 10.9394 40.1922 10.7709C39.8138 10.6024 39.6436 10.1591 39.8121 9.7807L41.6424 5.66974Z" fill="white"/>
<rect x="10" y="32" width="14" height="2" rx="1" fill="#485F84"/>
<rect x="10" y="36" width="11" height="2" rx="1" fill="#485F84"/>
<defs>
<linearGradient id="paint0_linear_1928_408" x1="6" y1="58" x2="58" y2="6" gradientUnits="userSpaceOnUse">
<stop stop-color="#9E9E9E"/>
<stop offset="1" stop-color="#BEBEBE"/>
</linearGradient>
<linearGradient id="paint1_linear_1928_408" x1="45.3375" y1="3.20989" x2="18.8996" y2="62.5904" gradientUnits="userSpaceOnUse">
<stop offset="0.619792" stop-color="#229FAD"/>
<stop offset="1" stop-color="#48B9C7"/>
</linearGradient>
</defs>
</svg>
